<svg width="93" height="53" viewBox="0 0 93 53" fill="none" xmlns="http://www.w3.org/2000/svg">
<path d="M11.0199 51.7727C9.25568 51.7727 7.7429 51.5298 6.48153 51.044C5.22869 50.5668 4.23153 49.9148 3.49006 49.0881C2.74858 48.2614 2.26705 47.3324 2.04545 46.3011L7.08239 45.6236C7.2358 46.0156 7.47869 46.3821 7.81108 46.723C8.14347 47.0639 8.58239 47.3366 9.12784 47.5412C9.68182 47.7543 10.3551 47.8608 11.1477 47.8608C12.3324 47.8608 13.3082 47.571 14.0753 46.9915C14.8509 46.4205 15.2386 45.4616 15.2386 44.1151V40.5227H15.0085C14.7699 41.0682 14.4119 41.5838 13.9347 42.0696C13.4574 42.5554 12.8438 42.9517 12.0938 43.2585C11.3438 43.5653 10.4489 43.7188 9.40909 43.7188C7.93466 43.7188 6.59233 43.3778 5.3821 42.696C4.1804 42.0057 3.22159 40.9531 2.50568 39.5384C1.7983 38.1151 1.4446 36.3168 1.4446 34.1435C1.4446 31.919 1.80682 30.0611 2.53125 28.5696C3.25568 27.0781 4.21875 25.9616 5.42045 25.2202C6.63068 24.4787 7.95597 24.108 9.39631 24.108C10.4957 24.108 11.4162 24.2955 12.1577 24.6705C12.8991 25.0369 13.4957 25.4972 13.9474 26.0511C14.4077 26.5966 14.7614 27.1335 15.0085 27.6619H15.2131V24.3636H20.6207V44.1918C20.6207 45.8622 20.2116 47.2599 19.3935 48.3849C18.5753 49.5099 17.4418 50.3537 15.9929 50.9162C14.5526 51.4872 12.8949 51.7727 11.0199 51.7727ZM11.1349 39.6278C12.0128 39.6278 12.7543 39.4105 13.3594 38.9759C13.973 38.5327 14.4418 37.902 14.7656 37.0838C15.098 36.2571 15.2642 35.2685 15.2642 34.1179C15.2642 32.9673 15.1023 31.9702 14.7784 31.1264C14.4545 30.2741 13.9858 29.6136 13.3722 29.1449C12.7585 28.6761 12.0128 28.4418 11.1349 28.4418C10.2401 28.4418 9.4858 28.6847 8.87216 29.1705C8.25852 29.6477 7.79403 30.3125 7.47869 31.1648C7.16335 32.017 7.00568 33.0014 7.00568 34.1179C7.00568 35.2514 7.16335 36.2315 7.47869 37.0582C7.80256 37.8764 8.26705 38.5114 8.87216 38.9631C9.4858 39.4062 10.2401 39.6278 11.1349 39.6278ZM24.9545 44V24.3636H30.4006V44H24.9545ZM27.6903 21.8324C26.8807 21.8324 26.1861 21.5639 25.6065 21.027C25.0355 20.4815 24.75 19.8295 24.75 19.071C24.75 18.321 25.0355 17.6776 25.6065 17.1406C26.1861 16.5952 26.8807 16.3224 27.6903 16.3224C28.5 16.3224 29.1903 16.5952 29.7614 17.1406C30.3409 17.6776 30.6307 18.321 30.6307 19.071C30.6307 19.8295 30.3409 20.4815 29.7614 21.027C29.1903 21.5639 28.5 21.8324 27.6903 21.8324ZM45.2077 24.3636V28.4545H33.3825V24.3636H45.2077ZM36.0671 19.6591H41.5131V37.9659C41.5131 38.4687 41.5898 38.8608 41.7433 39.142C41.8967 39.4148 42.1097 39.6065 42.3825 39.7173C42.6637 39.8281 42.9876 39.8835 43.354 39.8835C43.6097 39.8835 43.8654 39.8622 44.1211 39.8196C44.3768 39.7685 44.5728 39.7301 44.7092 39.7045L45.5657 43.7571C45.293 43.8423 44.9094 43.9403 44.4151 44.0511C43.9208 44.1705 43.32 44.2429 42.6126 44.2685C41.3001 44.3196 40.1495 44.1449 39.1609 43.7443C38.1808 43.3437 37.418 42.7216 36.8725 41.8778C36.3271 41.0341 36.0586 39.9687 36.0671 38.6818V19.6591ZM57.391 51.7727C55.6268 51.7727 54.114 51.5298 52.8526 51.044C51.5998 50.5668 50.6026 49.9148 49.8612 49.0881C49.1197 48.2614 48.6381 47.3324 48.4165 46.3011L53.4535 45.6236C53.6069 46.0156 53.8498 46.3821 54.1822 46.723C54.5146 47.0639 54.9535 47.3366 55.4989 47.5412C56.0529 47.7543 56.7262 47.8608 57.5188 47.8608C58.7035 47.8608 59.6793 47.571 60.4464 46.9915C61.2219 46.4205 61.6097 45.4616 61.6097 44.1151V40.5227H61.3796C61.141 41.0682 60.783 41.5838 60.3058 42.0696C59.8285 42.5554 59.2148 42.9517 58.4648 43.2585C57.7148 43.5653 56.82 43.7188 55.7802 43.7188C54.3058 43.7188 52.9634 43.3778 51.7532 42.696C50.5515 42.0057 49.5927 40.9531 48.8768 39.5384C48.1694 38.1151 47.8157 36.3168 47.8157 34.1435C47.8157 31.919 48.1779 30.0611 48.9023 28.5696C49.6268 27.0781 50.5898 25.9616 51.7915 25.2202C53.0018 24.4787 54.3271 24.108 55.7674 24.108C56.8668 24.108 57.7873 24.2955 58.5288 24.6705C59.2702 25.0369 59.8668 25.4972 60.3185 26.0511C60.7788 26.5966 61.1325 27.1335 61.3796 27.6619H61.5842V24.3636H66.9918V44.1918C66.9918 45.8622 66.5827 47.2599 65.7646 48.3849C64.9464 49.5099 63.8129 50.3537 62.364 50.9162C60.9237 51.4872 59.266 51.7727 57.391 51.7727ZM57.506 39.6278C58.3839 39.6278 59.1254 39.4105 59.7305 38.9759C60.3441 38.5327 60.8129 37.902 61.1367 37.0838C61.4691 36.2571 61.6353 35.2685 61.6353 34.1179C61.6353 32.9673 61.4734 31.9702 61.1495 31.1264C60.8256 30.2741 60.3569 29.6136 59.7433 29.1449C59.1296 28.6761 58.3839 28.4418 57.506 28.4418C56.6112 28.4418 55.8569 28.6847 55.2433 29.1705C54.6296 29.6477 54.1651 30.3125 53.8498 31.1648C53.5344 32.017 53.3768 33.0014 53.3768 34.1179C53.3768 35.2514 53.5344 36.2315 53.8498 37.0582C54.1737 37.8764 54.6381 38.5114 55.2433 38.9631C55.8569 39.4062 56.6112 39.6278 57.506 39.6278ZM71.3256 44V24.3636H76.7717V44H71.3256ZM74.0614 21.8324C73.2518 21.8324 72.5572 21.5639 71.9776 21.027C71.4066 20.4815 71.1211 19.8295 71.1211 19.071C71.1211 18.321 71.4066 17.6776 71.9776 17.1406C72.5572 16.5952 73.2518 16.3224 74.0614 16.3224C74.8711 16.3224 75.5614 16.5952 76.1325 17.1406C76.712 17.6776 77.0018 18.321 77.0018 19.071C77.0018 19.8295 76.712 20.4815 76.1325 21.027C75.5614 21.5639 74.8711 21.8324 74.0614 21.8324ZM91.5788 24.3636V28.4545H79.7536V24.3636H91.5788ZM82.4382 19.6591H87.8842V37.9659C87.8842 38.4687 87.9609 38.8608 88.1143 39.142C88.2678 39.4148 88.4808 39.6065 88.7536 39.7173C89.0348 39.8281 89.3587 39.8835 89.7251 39.8835C89.9808 39.8835 90.2365 39.8622 90.4922 39.8196C90.7479 39.7685 90.9439 39.7301 91.0803 39.7045L91.9368 43.7571C91.6641 43.8423 91.2805 43.9403 90.7862 44.0511C90.2919 44.1705 89.6911 44.2429 88.9837 44.2685C87.6712 44.3196 86.5206 44.1449 85.532 43.7443C84.5518 43.3437 83.7891 42.7216 83.2436 41.8778C82.6982 41.0341 82.4297 39.9687 82.4382 38.6818V19.6591Z" fill="white"/>
<path d="M30 13C30 13 39.402 2 51 2C62.598 2 72 13 72 13" stroke="#61B399" stroke-width="3" stroke-linecap="round"/>
</svg>
